<?xml version="1.0" encoding="UTF-8"?><svg id="a" xmlns="http://www.w3.org/2000/svg" xmlns:xlink="http://www.w3.org/1999/xlink" viewBox="0 0 350 208"><defs><filter id="b" x="135.03" y="54.85" width="71.52" height="122.4" filterUnits="userSpaceOnUse"><feOffset dx="0" dy="0"/><feGaussianBlur result="c" stdDeviation="5"/><feFlood flood-color="#878787" flood-opacity=".8"/><feComposite in2="c" operator="in"/><feComposite in="SourceGraphic"/></filter><filter id="d" x="42.15" y="67.81" width="115.44" height="109.68" filterUnits="userSpaceOnUse"><feOffset dx="0" dy="0"/><feGaussianBlur result="e" stdDeviation="5"/><feFlood flood-color="#878787" flood-opacity=".8"/><feComposite in2="e" operator="in"/><feComposite in="SourceGraphic"/></filter><filter id="f" x="84.39" y="42.61" width="51.36" height="54.48" filterUnits="userSpaceOnUse"><feOffset dx="0" dy="0"/><feGaussianBlur result="g" stdDeviation="5"/><feFlood flood-color="#878787" flood-opacity=".8"/><feComposite in2="g" operator="in"/><feComposite in="SourceGraphic"/></filter><filter id="h" x="183.27" y="72.61" width="99.12" height="103.92" filterUnits="userSpaceOnUse"><feOffset dx="0" dy="0"/><feGaussianBlur result="i" stdDeviation="5"/><feFlood flood-color="#878787" flood-opacity=".8"/><feComposite in2="i" operator="in"/><feComposite in="SourceGraphic"/></filter></defs><rect x="349.06" y=".34" width="0" height=".04" style="fill:#fff;"/><path d="M160.85,70.12v17.5h-10.76v13.43h10.76v40.4c0,14.67,6.12,20.64,21.15,20.64s6.69-.26,8.49-.67l.77-.15v-13.48l-1.08.15c-.98.15-3.45.36-4.89.36-5.61,0-8.03-2.52-8.03-8.34v-38.96h14.05v-13.43h-14.05v-17.5h-16.42v.05h0Z" style="fill:#fff; filter:url(#b);"/><path d="M120.5,83.04c-8.59-.62-15.9,4.79-20.02,4.79s-10.5-4.68-17.29-4.53c-8.9.15-17.03,5.15-21.61,13.12-9.21,16-2.37,39.73,6.64,52.7,4.37,6.33,9.62,13.48,16.52,13.23,6.64-.26,9.11-4.27,17.14-4.27s10.24,4.27,17.24,4.17c7.15-.15,11.63-6.48,16-12.87,5.04-7.36,7.1-14.51,7.26-14.87-.15-.05-13.89-5.35-14.05-21.15-.1-13.23,10.81-19.61,11.32-19.92-6.23-9.16-15.8-10.14-19.14-10.4h0Z" style="fill:#fff; filter:url(#d);"/><path d="M115.15,74.49c3.65-4.43,6.12-10.6,5.45-16.67-5.25.21-11.63,3.5-15.39,7.92-3.4,3.91-6.33,10.19-5.56,16.16,5.87.46,11.84-2.98,15.49-7.41h0Z" style="fill:#fff; filter:url(#f);"/><polygon points="250.29 87.62 233 143.55 215.66 87.62 198.36 87.62 224.56 161.51 241.28 161.51 267.37 87.62 250.29 87.62" style="fill:#fff; filter:url(#h);"/></svg>